<?xml version="1.0" standalone="no"?><svg xmlns:xlink="http://www.w3.org/1999/xlink" xmlns="http://www.w3.org/2000/svg" viewBox="0 0 1000 333.3281553398058" preserveAspectRatio="xMaxYMax slice"><g transform="scale(0.970873786407767)"><rect x="0" y="0" width="1030" height="343.3333333333333" fill="#ffffff"/><rect x="0" y="0" width="343.3333333333333" height="343.3333333333333" fill="#ffffff"/><rect x="0" y="0" width="171.67" height="171.67" fill="#b5cab8"/><path d="M 0 0 A 171.67 171.67 0 0 1 171.67 171.67 L 0 171.67L0 0" fill="#fdfefd"/><rect x="171.67" y="0" width="171.67" height="171.67" fill="#dce6dd"/><path d="M 171.67 0 A 171.67 171.67 0 0 1 343.34 171.67 L 171.67 171.67L171.67 0" fill="#f4f7f5"/><rect x="0" y="171.67" width="171.67" height="171.67" fill="#d2dfd4"/><path d="M 0 343.34 A 171.67 171.67 0 0 1  171.67 171.67 L 0 343.34 A 171.67 171.67 0 0 0 171.67 171.67" fill="#4f7167"/><rect x="171.67" y="171.67" width="171.67" height="171.67" fill="#aebdb9"/><g transform="translate(171.67,171.67) scale(8.583499999999999) rotate(0)"><rect width="2" height="20" fill="#8fb094"/><rect x="4" width="2" height="20" fill="#8fb094"/><rect x="8" width="2" height="20" fill="#8fb094"/><rect x="12" width="2" height="20" fill="#8fb094"/><rect x="16" width="2" height="20" fill="#8fb094"/></g><rect x="343.3333333333333" y="0" width="343.3333333333333" height="343.3333333333333" fill="#ffffff"/><rect x="343.33" y="0" width="171.67" height="171.67" fill="#a4b6b1"/><path d="M 343.33 0 A 171.67 171.67 0 0 0 515 171.67 L 515 0L343.33 0" fill="#6f9874"/><rect x="515" y="0" width="171.67" height="171.67" fill="#f6f9f6"/><polygon points="686.67,0 686.67,171.67 515,171.67" fill="#799f7e"/><rect x="343.33" y="171.67" width="171.67" height="171.67" fill="#d4e0d5"/><g transform="translate(343.33,171.67) scale(8.583499999999999) rotate(0)"><rect width="2" height="20" fill="#82a687"/><rect x="4" width="2" height="20" fill="#82a687"/><rect x="8" width="2" height="20" fill="#82a687"/><rect x="12" width="2" height="20" fill="#82a687"/><rect x="16" width="2" height="20" fill="#82a687"/></g><rect x="515" y="171.67" width="171.67" height="171.67" fill="#cad4d2"/><polygon points="515,171.67 686.67,343.34 515,343.34" fill="#3b6156"/><rect x="686.6666666666666" y="0" width="343.3333333333333" height="343.3333333333333" fill="#ffffff"/><rect x="686.67" y="0" width="171.67" height="171.67" fill="#d1dad7"/><path d="M 686.67 171.67 A 171.67 171.67 0 0 1  858.3399999999999 0 L 686.67 171.67 A 171.67 171.67 0 0 0 858.3399999999999 0" fill="#b2c8b5"/><rect x="858.33" y="0" width="171.67" height="171.67" fill="#466a60"/><polygon points="858.33,0 1030,0 1030,171.67" fill="#8bac90"/><rect x="686.67" y="171.67" width="171.67" height="171.67" fill="#e6ede7"/><g transform="translate(686.67,171.67) scale(8.583499999999999) rotate(0)"><rect width="2" height="20" fill="#e6ede7"/><rect x="4" width="2" height="20" fill="#e6ede7"/><rect x="8" width="2" height="20" fill="#e6ede7"/><rect x="12" width="2" height="20" fill="#e6ede7"/><rect x="16" width="2" height="20" fill="#e6ede7"/></g><rect x="858.33" y="171.67" width="171.67" height="171.67" fill="#90b095"/><polygon points="858.33,171.67 1030,171.67 858.33,343.34" fill="#709975"/></g></svg>