<svg width="24" height="25" viewBox="0 0 24 25" fill="none" xmlns="http://www.w3.org/2000/svg">
<g id="add_chart">
<mask id="mask0_696_256" style="mask-type:alpha" maskUnits="userSpaceOnUse" x="0" y="0" width="24" height="25">
<rect id="Bounding box" y="0.5" width="24" height="24" fill="#D9D9D9"/>
</mask>
<g mask="url(#mask0_696_256)">
<path id="add_chart_2" d="M5 21.5C4.45 21.5 3.97917 21.3042 3.5875 20.9125C3.19583 20.5208 3 20.05 3 19.5V5.5C3 4.95 3.19583 4.47917 3.5875 4.0875C3.97917 3.69583 4.45 3.5 5 3.5H14V5.5H5V19.5H19V10.5H21V19.5C21 20.05 20.8042 20.5208 20.4125 20.9125C20.0208 21.3042 19.55 21.5 19 21.5H5ZM7 17.5H9V10.5H7V17.5ZM11 17.5H13V7.5H11V17.5ZM15 17.5H17V13.5H15V17.5ZM17 9.5V7.5H15V5.5H17V3.5H19V5.5H21V7.5H19V9.5H17Z" fill="white"/>
</g>
</g>
</svg>
