<svg width="24" height="24" viewBox="0 0 24 24" fill="none" xmlns="http://www.w3.org/2000/svg">
<g id="clean_hands">
<mask id="mask0_614_320" style="mask-type:alpha" maskUnits="userSpaceOnUse" x="0" y="0" width="24" height="24">
<rect id="Bounding box" width="24" height="24" fill="#D9D9D9"/>
</mask>
<g mask="url(#mask0_614_320)">
<path id="clean_hands_2" d="M7 18.5L13.95 20.4L19.9 18.55C19.8167 18.4 19.6958 18.2708 19.5375 18.1625C19.3792 18.0542 19.2 18 19 18H13.95C13.5 18 13.1417 17.9833 12.875 17.95C12.6083 17.9167 12.3333 17.85 12.05 17.75L9.725 16.975L10.275 15.025L12.3 15.7C12.5833 15.7833 12.9167 15.85 13.3 15.9C13.6833 15.95 14.25 15.9833 15 16C15 15.8167 14.9458 15.6417 14.8375 15.475C14.7292 15.3083 14.6 15.2 14.45 15.15L8.6 13H7V18.5ZM1 22V11H8.6C8.71667 11 8.83333 11.0125 8.95 11.0375C9.06667 11.0625 9.175 11.0917 9.275 11.125L15.15 13.3C15.7 13.5 16.1458 13.85 16.4875 14.35C16.8292 14.85 17 15.4 17 16H19C19.8333 16 20.5417 16.275 21.125 16.825C21.7083 17.375 22 18.1 22 19V20L14 22.5L7 20.55V22H1ZM3 20H5V13H3V20ZM15 11.65L13 10.9C12.9667 10.1 12.6625 9.41667 12.0875 8.85C11.5125 8.28333 10.8167 8 10 8C9.45 8 8.94583 8.1375 8.4875 8.4125C8.02917 8.6875 7.66667 9.05 7.4 9.5H5.25C5.53333 8.65 6.00417 7.91667 6.6625 7.3C7.32083 6.68333 8.1 6.28333 9 6.1V4H7.5V2H13C13.5667 2 14.1 2.09167 14.6 2.275C15.1 2.45833 15.5583 2.70833 15.975 3.025L14.55 4.45C14.3167 4.31667 14.0708 4.20833 13.8125 4.125C13.5542 4.04167 13.2833 4 13 4H11V6.1C12.15 6.33333 13.1042 6.90417 13.8625 7.8125C14.6208 8.72083 15 9.78333 15 11V11.65ZM19 10C18.45 10 17.9792 9.80417 17.5875 9.4125C17.1958 9.02083 17 8.55 17 8C17 7.61667 17.1417 7.14167 17.425 6.575C17.7083 6.00833 18.2333 5.15 19 4C19.7667 5.15 20.2917 6.00833 20.575 6.575C20.8583 7.14167 21 7.61667 21 8C21 8.55 20.8042 9.02083 20.4125 9.4125C20.0208 9.80417 19.55 10 19 10Z" fill="#1C1B1F"/>
</g>
</g>
</svg>
