<svg width="25" height="24" viewBox="0 0 25 24" fill="none" xmlns="http://www.w3.org/2000/svg">
<g id="sports_and_outdoors">
<mask id="mask0_614_241" style="mask-type:alpha" maskUnits="userSpaceOnUse" x="0" y="0" width="25" height="24">
<rect id="Bounding box" x="0.5" width="24" height="24" fill="#D9D9D9"/>
</mask>
<g mask="url(#mask0_614_241)">
<path id="sports_and_outdoors_2" d="M10.85 19.8L11.15 18.4C11.2 18.1833 11.3042 18.0042 11.4625 17.8625C11.6208 17.7208 11.8167 17.6333 12.05 17.6L15.15 17.35C15.3667 17.3167 15.5667 17.3583 15.75 17.475C15.9333 17.5917 16.0667 17.75 16.15 17.95L16.55 18.9C17.2 18.5167 17.7833 18.0542 18.3 17.5125C18.8167 16.9708 19.25 16.3667 19.6 15.7L19.3 15.55C19.1167 15.4167 18.9833 15.2542 18.9 15.0625C18.8167 14.8708 18.8 14.6667 18.85 14.45L19.55 11.4C19.6 11.2 19.7042 11.0333 19.8625 10.9C20.0208 10.7667 20.2 10.6833 20.4 10.65C20.3167 10.2333 20.2125 9.82917 20.0875 9.4375C19.9625 9.04583 19.8 8.66667 19.6 8.3C19.45 8.38333 19.2875 8.42083 19.1125 8.4125C18.9375 8.40417 18.7833 8.35 18.65 8.25L16 6.65C15.8167 6.53333 15.6833 6.375 15.6 6.175C15.5167 5.975 15.5 5.76667 15.55 5.55L15.75 4.7C15.2333 4.46667 14.7042 4.29167 14.1625 4.175C13.6208 4.05833 13.0667 4 12.5 4C12.2667 4 12.025 4.0125 11.775 4.0375C11.525 4.0625 11.2833 4.1 11.05 4.15L11.8 5.85C11.8833 6.05 11.9042 6.25833 11.8625 6.475C11.8208 6.69167 11.7167 6.86667 11.55 7L9.2 9.05C9.03333 9.2 8.8375 9.28333 8.6125 9.3C8.3875 9.31667 8.18333 9.26667 8 9.15L5.7 7.75C5.31667 8.38333 5.02083 9.0625 4.8125 9.7875C4.60417 10.5125 4.5 11.25 4.5 12C4.5 12.2667 4.53333 12.7 4.6 13.3L6.8 13.1C7.03333 13.0667 7.24583 13.1042 7.4375 13.2125C7.62917 13.3208 7.76667 13.4833 7.85 13.7L9.05 16.55C9.13333 16.75 9.15417 16.9583 9.1125 17.175C9.07083 17.3917 8.96667 17.5667 8.8 17.7L7.85 18.5C8.3 18.8333 8.77917 19.1083 9.2875 19.325C9.79583 19.5417 10.3167 19.7 10.85 19.8ZM12.65 15.5C12.4333 15.5333 12.2333 15.4917 12.05 15.375C11.8667 15.2583 11.7333 15.1 11.65 14.9L10.3 11.8C10.2167 11.6 10.2042 11.3917 10.2625 11.175C10.3208 10.9583 10.4333 10.7833 10.6 10.65L13.15 8.5C13.3 8.35 13.4833 8.26667 13.7 8.25C13.9167 8.23333 14.1167 8.28333 14.3 8.4L17.1 10.05C17.2833 10.1667 17.425 10.325 17.525 10.525C17.625 10.725 17.65 10.9333 17.6 11.15L16.8 14.4C16.75 14.6167 16.65 14.7958 16.5 14.9375C16.35 15.0792 16.1667 15.1667 15.95 15.2L12.65 15.5ZM12.5 22C11.1167 22 9.81667 21.7375 8.6 21.2125C7.38333 20.6875 6.325 19.975 5.425 19.075C4.525 18.175 3.8125 17.1167 3.2875 15.9C2.7625 14.6833 2.5 13.3833 2.5 12C2.5 10.6167 2.7625 9.31667 3.2875 8.1C3.8125 6.88333 4.525 5.825 5.425 4.925C6.325 4.025 7.38333 3.3125 8.6 2.7875C9.81667 2.2625 11.1167 2 12.5 2C13.8833 2 15.1833 2.2625 16.4 2.7875C17.6167 3.3125 18.675 4.025 19.575 4.925C20.475 5.825 21.1875 6.88333 21.7125 8.1C22.2375 9.31667 22.5 10.6167 22.5 12C22.5 13.3833 22.2375 14.6833 21.7125 15.9C21.1875 17.1167 20.475 18.175 19.575 19.075C18.675 19.975 17.6167 20.6875 16.4 21.2125C15.1833 21.7375 13.8833 22 12.5 22Z" fill="#1C1B1F"/>
</g>
</g>
</svg>
