<svg width="24" height="25" viewBox="0 0 24 25" fill="none" xmlns="http://www.w3.org/2000/svg">
<g id="tactic">
<mask id="mask0_696_246" style="mask-type:alpha" maskUnits="userSpaceOnUse" x="0" y="0" width="24" height="25">
<rect id="Bounding box" y="0.5" width="24" height="24" fill="#D9D9D9"/>
</mask>
<g mask="url(#mask0_696_246)">
<path id="tactic_2" d="M16.4 21.5L15 20.1L16.575 18.5L15 16.925L16.4 15.5L18 17.1L19.575 15.5L21 16.925L19.4 18.5L21 20.1L19.575 21.5L18 19.925L16.4 21.5ZM6 19.5C6.28333 19.5 6.52083 19.4042 6.7125 19.2125C6.90417 19.0208 7 18.7833 7 18.5C7 18.2167 6.90417 17.9792 6.7125 17.7875C6.52083 17.5958 6.28333 17.5 6 17.5C5.71667 17.5 5.47917 17.5958 5.2875 17.7875C5.09583 17.9792 5 18.2167 5 18.5C5 18.7833 5.09583 19.0208 5.2875 19.2125C5.47917 19.4042 5.71667 19.5 6 19.5ZM6 21.5C5.16667 21.5 4.45833 21.2083 3.875 20.625C3.29167 20.0417 3 19.3333 3 18.5C3 17.6667 3.29167 16.9583 3.875 16.375C4.45833 15.7917 5.16667 15.5 6 15.5C6.61667 15.5 7.17917 15.6708 7.6875 16.0125C8.19583 16.3542 8.56667 16.8167 8.8 17.4C9.45 17.2167 9.97917 16.8583 10.3875 16.325C10.7958 15.7917 11 15.1833 11 14.5V10.5C11 9.11667 11.4875 7.9375 12.4625 6.9625C13.4375 5.9875 14.6167 5.5 16 5.5H17.15L15.575 3.925L17 2.5L21 6.5L17 10.5L15.575 9.1L17.15 7.5H16C15.1667 7.5 14.4583 7.79167 13.875 8.375C13.2917 8.95833 13 9.66667 13 10.5V14.5C13 15.7167 12.6083 16.7875 11.825 17.7125C11.0417 18.6375 10.05 19.2083 8.85 19.425C8.65 20.0417 8.2875 20.5417 7.7625 20.925C7.2375 21.3083 6.65 21.5 6 21.5ZM4.4 9.5L3 8.1L4.575 6.5L3 4.925L4.4 3.5L6 5.1L7.575 3.5L9 4.925L7.4 6.5L9 8.1L7.575 9.5L6 7.925L4.4 9.5Z" fill="white"/>
</g>
</g>
</svg>
