<svg width="25" height="24" viewBox="0 0 25 24" fill="none" xmlns="http://www.w3.org/2000/svg">
<g id="agriculture">
<mask id="mask0_614_316" style="mask-type:alpha" maskUnits="userSpaceOnUse" x="0" y="0" width="25" height="24">
<rect id="Bounding box" x="0.5" width="24" height="24" fill="#D9D9D9"/>
</mask>
<g mask="url(#mask0_614_316)">
<path id="agriculture_2" d="M4.5 9C4.21667 9 3.97917 8.90417 3.7875 8.7125C3.59583 8.52084 3.5 8.28334 3.5 8C3.5 7.71667 3.59583 7.47917 3.7875 7.2875C3.97917 7.09584 4.21667 7 4.5 7H7.5C8.05 7 8.52083 7.19584 8.9125 7.5875C9.30417 7.97917 9.5 8.45 9.5 9H4.5ZM6.5 18C7.33333 18 8.04167 17.7083 8.625 17.125C9.20833 16.5417 9.5 15.8333 9.5 15C9.5 14.1667 9.20833 13.4583 8.625 12.875C8.04167 12.2917 7.33333 12 6.5 12C5.66667 12 4.95833 12.2917 4.375 12.875C3.79167 13.4583 3.5 14.1667 3.5 15C3.5 15.8333 3.79167 16.5417 4.375 17.125C4.95833 17.7083 5.66667 18 6.5 18ZM20 18C20.4167 18 20.7708 17.8542 21.0625 17.5625C21.3542 17.2708 21.5 16.9167 21.5 16.5C21.5 16.0833 21.3542 15.7292 21.0625 15.4375C20.7708 15.1458 20.4167 15 20 15C19.5833 15 19.2292 15.1458 18.9375 15.4375C18.6458 15.7292 18.5 16.0833 18.5 16.5C18.5 16.9167 18.6458 17.2708 18.9375 17.5625C19.2292 17.8542 19.5833 18 20 18ZM6.5 16.5C6.08333 16.5 5.72917 16.3542 5.4375 16.0625C5.14583 15.7708 5 15.4167 5 15C5 14.5833 5.14583 14.2292 5.4375 13.9375C5.72917 13.6458 6.08333 13.5 6.5 13.5C6.91667 13.5 7.27083 13.6458 7.5625 13.9375C7.85417 14.2292 8 14.5833 8 15C8 15.4167 7.85417 15.7708 7.5625 16.0625C7.27083 16.3542 6.91667 16.5 6.5 16.5ZM20.5 13.025C20.9333 13.1083 21.2917 13.2208 21.575 13.3625C21.8583 13.5042 22.1667 13.7333 22.5 14.05V8C22.5 7.45 22.3042 6.97917 21.9125 6.5875C21.5208 6.19584 21.05 6 20.5 6H14.2L13.15 4.9L14.55 3.5L13.85 2.8L10.3 6.35L11.05 7.05L12.45 5.65L13.5 6.7V9C13.5 9.55 13.3042 10.0208 12.9125 10.4125C12.5208 10.8042 12.05 11 11.5 11H9.475C9.85833 11.2833 10.1667 11.575 10.4 11.875C10.6333 12.175 10.8667 12.55 11.1 13H11.5C12.6 13 13.5417 12.6083 14.325 11.825C15.1083 11.0417 15.5 10.1 15.5 9V8H20.5V13.025ZM16.525 16C16.625 15.55 16.7458 15.1875 16.8875 14.9125C17.0292 14.6375 17.25 14.3333 17.55 14H11.4C11.4667 14.3833 11.5 14.7167 11.5 15C11.5 15.2833 11.4667 15.6167 11.4 16H16.525ZM20 20C19.0333 20 18.2083 19.6583 17.525 18.975C16.8417 18.2917 16.5 17.4667 16.5 16.5C16.5 15.5333 16.8417 14.7083 17.525 14.025C18.2083 13.3417 19.0333 13 20 13C20.9667 13 21.7917 13.3417 22.475 14.025C23.1583 14.7083 23.5 15.5333 23.5 16.5C23.5 17.4667 23.1583 18.2917 22.475 18.975C21.7917 19.6583 20.9667 20 20 20ZM6.5 20C5.11667 20 3.9375 19.5125 2.9625 18.5375C1.9875 17.5625 1.5 16.3833 1.5 15C1.5 13.6167 1.9875 12.4375 2.9625 11.4625C3.9375 10.4875 5.11667 10 6.5 10C7.88333 10 9.0625 10.4875 10.0375 11.4625C11.0125 12.4375 11.5 13.6167 11.5 15C11.5 16.3833 11.0125 17.5625 10.0375 18.5375C9.0625 19.5125 7.88333 20 6.5 20Z" fill="#1C1B1F"/>
</g>
</g>
</svg>
