<svg width="53" height="53" viewBox="0 0 53 53" fill="none" xmlns="http://www.w3.org/2000/svg">
<g id="Icon-notification">
<rect id="Rectangle 84" width="53" height="53" rx="12" fill="#6D9773"/>
<g id="notifications">
<mask id="mask0_262_1907" style="mask-type:alpha" maskUnits="userSpaceOnUse" x="9" y="9" width="34" height="34">
<rect id="Bounding box" x="9.78467" y="9.78467" width="32.6154" height="32.6154" fill="black"/>
</mask>
<g mask="url(#mask0_262_1907)">
<path id="notifications_2" d="M15.2205 35.6051V32.8872H17.9384V23.3744C17.9384 21.4944 18.5046 19.824 19.6371 18.3631C20.7696 16.9022 22.2418 15.9453 24.0538 15.4923V14.541C24.0538 13.9748 24.252 13.4935 24.6483 13.0971C25.0447 12.7007 25.526 12.5026 26.0923 12.5026C26.6585 12.5026 27.1398 12.7007 27.5362 13.0971C27.9325 13.4935 28.1307 13.9748 28.1307 14.541V15.4923C29.9427 15.9453 31.4149 16.9022 32.5474 18.3631C33.6799 19.824 34.2461 21.4944 34.2461 23.3744V32.8872H36.964V35.6051H15.2205ZM26.0923 39.682C25.3448 39.682 24.705 39.4159 24.1727 38.8837C23.6404 38.3514 23.3743 37.7115 23.3743 36.9641H28.8102C28.8102 37.7115 28.5441 38.3514 28.0118 38.8837C27.4795 39.4159 26.8397 39.682 26.0923 39.682ZM20.6564 32.8872H31.5282V23.3744C31.5282 21.8795 30.9959 20.5998 29.9314 19.5353C28.8668 18.4707 27.5871 17.9385 26.0923 17.9385C24.5974 17.9385 23.3177 18.4707 22.2532 19.5353C21.1886 20.5998 20.6564 21.8795 20.6564 23.3744V32.8872Z" fill="white"/>
</g>
</g>
</g>
</svg>
