<svg width="53" height="53" viewBox="0 0 53 53" fill="none" xmlns="http://www.w3.org/2000/svg">
<g id="Icon-profil">
<rect id="Rectangle 84" width="53" height="53" rx="12" fill="#6D9773"/>
<g id="account_circle">
<mask id="mask0_262_1906" style="mask-type:alpha" maskUnits="userSpaceOnUse" x="9" y="9" width="34" height="34">
<rect id="Bounding box" x="9.78467" y="9.78467" width="32.6154" height="32.6154" fill="#D9D9D9"/>
</mask>
<g mask="url(#mask0_262_1906)">
<path id="account_circle_2" d="M17.7347 33.0231C18.8899 32.1397 20.1809 31.4433 21.6078 30.9337C23.0347 30.424 24.5296 30.1692 26.0924 30.1692C27.6552 30.1692 29.1501 30.424 30.577 30.9337C32.004 31.4433 33.295 32.1397 34.4501 33.0231C35.2429 32.0944 35.8601 31.0412 36.3017 29.8635C36.7434 28.6857 36.9642 27.4286 36.9642 26.0923C36.9642 23.0799 35.9054 20.5148 33.7876 18.3971C31.6699 16.2794 29.1048 15.2205 26.0924 15.2205C23.08 15.2205 20.515 16.2794 18.3972 18.3971C16.2795 20.5148 15.2206 23.0799 15.2206 26.0923C15.2206 27.4286 15.4415 28.6857 15.8831 29.8635C16.3248 31.0412 16.942 32.0944 17.7347 33.0231ZM26.0924 27.4513C24.7561 27.4513 23.6293 26.9926 22.712 26.0753C21.7947 25.158 21.336 24.0312 21.336 22.6949C21.336 21.3585 21.7947 20.2317 22.712 19.3144C23.6293 18.3971 24.7561 17.9385 26.0924 17.9385C27.4288 17.9385 28.5556 18.3971 29.4729 19.3144C30.3902 20.2317 30.8488 21.3585 30.8488 22.6949C30.8488 24.0312 30.3902 25.158 29.4729 26.0753C28.5556 26.9926 27.4288 27.4513 26.0924 27.4513ZM26.0924 39.682C24.2125 39.682 22.4458 39.3253 20.7924 38.6119C19.139 37.8984 17.7008 36.9301 16.4777 35.707C15.2546 34.484 14.2863 33.0457 13.5729 31.3923C12.8594 29.7389 12.5027 27.9722 12.5027 26.0923C12.5027 24.2124 12.8594 22.4457 13.5729 20.7923C14.2863 19.1389 15.2546 17.7006 16.4777 16.4776C17.7008 15.2545 19.139 14.2862 20.7924 13.5728C22.4458 12.8593 24.2125 12.5026 26.0924 12.5026C27.9723 12.5026 29.739 12.8593 31.3924 13.5728C33.0458 14.2862 34.4841 15.2545 35.7072 16.4776C36.9302 17.7006 37.8985 19.1389 38.612 20.7923C39.3254 22.4457 39.6822 24.2124 39.6822 26.0923C39.6822 27.9722 39.3254 29.7389 38.612 31.3923C37.8985 33.0457 36.9302 34.484 35.7072 35.707C34.4841 36.9301 33.0458 37.8984 31.3924 38.6119C29.739 39.3253 27.9723 39.682 26.0924 39.682ZM26.0924 36.9641C27.2929 36.9641 28.4253 36.7886 29.4899 36.4375C30.5544 36.0864 31.5283 35.5825 32.4117 34.9256C31.5283 34.2688 30.5544 33.7648 29.4899 33.4138C28.4253 33.0627 27.2929 32.8872 26.0924 32.8872C24.892 32.8872 23.7595 33.0627 22.695 33.4138C21.6305 33.7648 20.6565 34.2688 19.7732 34.9256C20.6565 35.5825 21.6305 36.0864 22.695 36.4375C23.7595 36.7886 24.892 36.9641 26.0924 36.9641ZM26.0924 24.7333C26.6813 24.7333 27.1683 24.5408 27.5533 24.1558C27.9384 23.7707 28.1309 23.2838 28.1309 22.6949C28.1309 22.106 27.9384 21.619 27.5533 21.234C27.1683 20.8489 26.6813 20.6564 26.0924 20.6564C25.5035 20.6564 25.0166 20.8489 24.6315 21.234C24.2465 21.619 24.054 22.106 24.054 22.6949C24.054 23.2838 24.2465 23.7707 24.6315 24.1558C25.0166 24.5408 25.5035 24.7333 26.0924 24.7333Z" fill="white"/>
</g>
</g>
</g>
</svg>
