<svg width="25" height="24" viewBox="0 0 25 24" fill="none" xmlns="http://www.w3.org/2000/svg">
<g id="mosque">
<mask id="mask0_614_501" style="mask-type:alpha" maskUnits="userSpaceOnUse" x="0" y="0" width="25" height="24">
<rect id="Bounding box" x="0.5" width="24" height="24" fill="#D9D9D9"/>
</mask>
<g mask="url(#mask0_614_501)">
<path id="mosque_2" d="M1.5 21V8.725C1.2 8.54167 0.958333 8.30417 0.775 8.0125C0.591667 7.72083 0.5 7.38333 0.5 7C0.5 6.61667 0.7 6.15 1.1 5.6C1.5 5.05 1.96667 4.51667 2.5 4C3.03333 4.51667 3.5 5.05 3.9 5.6C4.3 6.15 4.5 6.61667 4.5 7C4.5 7.38333 4.40833 7.72083 4.225 8.0125C4.04167 8.30417 3.8 8.54167 3.5 8.725V13H5.5V11C5.5 10.5833 5.63333 10.1833 5.9 9.8C6.16667 9.41667 6.55 9.16667 7.05 9.05C6.86667 8.76667 6.72917 8.45833 6.6375 8.125C6.54583 7.79167 6.5 7.45 6.5 7.1C6.5 6.43333 6.65833 5.81667 6.975 5.25C7.29167 4.68333 7.71667 4.21667 8.25 3.85L12.5 1L16.75 3.85C17.2833 4.21667 17.7083 4.68333 18.025 5.25C18.3417 5.81667 18.5 6.43333 18.5 7.1C18.5 7.45 18.4542 7.79167 18.3625 8.125C18.2708 8.45833 18.1333 8.76667 17.95 9.05C18.45 9.16667 18.8333 9.41667 19.1 9.8C19.3667 10.1833 19.5 10.5833 19.5 11V13H21.5V8.725C21.2 8.54167 20.9583 8.30417 20.775 8.0125C20.5917 7.72083 20.5 7.38333 20.5 7C20.5 6.61667 20.7 6.15 21.1 5.6C21.5 5.05 21.9667 4.51667 22.5 4C23.0333 4.51667 23.5 5.05 23.9 5.6C24.3 6.15 24.5 6.61667 24.5 7C24.5 7.38333 24.4083 7.72083 24.225 8.0125C24.0417 8.30417 23.8 8.54167 23.5 8.725V21H13.5V17C13.5 16.7167 13.4042 16.4792 13.2125 16.2875C13.0208 16.0958 12.7833 16 12.5 16C12.2167 16 11.9792 16.0958 11.7875 16.2875C11.5958 16.4792 11.5 16.7167 11.5 17V21H1.5ZM10.4 9H14.6C15.1333 9 15.5833 8.81667 15.95 8.45C16.3167 8.08333 16.5 7.63333 16.5 7.1C16.5 6.76667 16.425 6.4625 16.275 6.1875C16.125 5.9125 15.9167 5.68333 15.65 5.5L12.5 3.4L9.35 5.5C9.08333 5.68333 8.875 5.9125 8.725 6.1875C8.575 6.4625 8.5 6.76667 8.5 7.1C8.5 7.63333 8.68333 8.08333 9.05 8.45C9.41667 8.81667 9.86667 9 10.4 9ZM3.5 19H9.5V17C9.5 16.1667 9.79167 15.4583 10.375 14.875C10.9583 14.2917 11.6667 14 12.5 14C13.3333 14 14.0417 14.2917 14.625 14.875C15.2083 15.4583 15.5 16.1667 15.5 17V19H21.5V15H17.5V11H7.5V15H3.5V19Z" fill="#1C1B1F"/>
</g>
</g>
</svg>
